Results
version=1
nRows=4
nColumns=85
inDegrees=yes
endheader
time	thorax_sagittal	thorax_frontal	thorax_horizontal	thorax_transx	thorax_transy	thorax_transz	cervix_sagittal	cervix_frontal	cervix_horizontal	caput_sagittal	caput_frontal	caput_horizontal	abdomen_sagittal	abdomen_frontal	abdomen_horizontal	cauda_sagittal	cauda_frontal	cauda_horizontal	left_r_m_superioris_sagittal	left_r_m_superioris_frontal	left_r_m_superioris_horizontal	left_r_m_superioris_transx	left_r_m_superioris_transy	left_r_m_superioris_transz	left_r_deltoidea_sagittal	left_r_deltoidea_frontal	left_r_deltoidea_horizontal	left_r_cubitalis_sagittal	left_r_cubitalis_frontal	left_r_cubitalis_horizontal	left_r_carpalis_sagittal	left_r_carpalis_frontal	left_r_carpalis_horizontal	left_r_forepaw_sagittal	left_r_forepaw_frontal	left_r_forepaw_horizontal	right_r_m_superioris_sagittal	right_r_m_superioris_frontal	right_r_m_superioris_horizontal	right_r_m_superioris_transx	right_r_m_superioris_transy	right_r_m_superioris_transz	right_r_deltoidea_sagittal	right_r_deltoidea_frontal	right_r_deltoidea_horizontal	right_r_cubitalis_sagittal	right_r_cubitalis_frontal	right_r_cubitalis_horizontal	right_r_carpalis_sagittal	right_r_carpalis_frontal	right_r_carpalis_horizontal	right_r_forepaw_sagittal	right_r_forepaw_frontal	right_r_forepaw_horizontal	m_inferioris_sagittal	m_inferioris_frontal	m_inferioris_horizontal	m_inferioris_transx	m_inferioris_transy	m_inferioris_transz	left_r_coxae_sagittal	left_r_coxae_frontal	left_r_coxae_horizontal	left_r_genus_sagittal	left_r_genus_frontal	left_r_genus_horizontal	left_r_talocruralis_sagittal	left_r_talocruralis_frontal	left_r_talocruralis_horizontal	left_r_hindpaw_sagittal	left_r_hindpaw_frontal	left_r_hindpaw_horizontal	right_r_coxae_sagittal	right_r_coxae_frontal	right_r_coxae_horizontal	right_r_genus_sagittal	right_r_genus_frontal	right_r_genus_horizontal	right_r_talocruralis_sagittal	right_r_talocruralis_frontal	right_r_talocruralis_horizontal	right_r_hindpaw_sagittal	right_r_hindpaw_frontal	right_r_hindpaw_horizontal
      6.28800000	   -101.17198045	      5.62985889	      0.06848193	     -1.04803052	      0.26600287	     -3.35611851	    -19.30407142	     10.64937102	     -9.39867599	      1.07255864	      3.68988011	    -24.98404445	     22.35591667	    -14.10920006	    -15.97456714	     -2.36198270	     -9.90152462	      4.43001739	    -33.08395007	    -36.01349863	     -7.53827208	      0.03246842	     -0.17969578	      0.10983044	    108.34728276	     -2.28090148	    -11.81109167	    -71.14499322	     31.45958554	     -1.37696497	     55.29780552	      0.61366850	      0.80000000	      0.00000000	      0.00000000	      0.00000000	    -32.69556961	     30.72126033	      7.71041365	     -0.03170997	     -0.17734699	      0.09872190	     95.51371422	     -4.92687215	     28.36265769	    -77.90122602	    -21.72080058	      2.19622324	    -18.58532855	      0.33812904	      0.80000000	      0.00000000	      0.00000000	      0.00000000	     26.62579502	     16.03358295	     -5.86312487	      0.01100861	     -0.06222997	      0.02514844	    -76.58501203	     -8.43832820	     -3.69680531	    111.43430140	      6.45388992	     -3.67421395	    -67.24902254	      4.43165081	      2.30000000	      0.00000000	      0.00000000	      0.00000000	    -89.34353961	      0.62649556	      0.71956962	     95.46025492	     -4.58552947	      3.16401241	    -63.12011389	     -0.42589690	      2.30000000	      0.00000000	      0.00000000	      0.00000000
      6.30466667	   -101.63475699	      5.57329826	      0.23763451	     -1.04816722	      0.26298066	     -3.33984357	    -18.82372819	     11.57870213	     -8.34558472	      0.09956746	      4.13012136	    -25.94215177	     23.75502840	    -14.09813154	    -15.76376990	     -2.92918589	     -9.48732516	      3.79682099	    -34.04873461	    -36.04974347	     -8.32644294	      0.03294353	     -0.17951648	      0.10879315	    105.31683050	     -3.63317764	    -13.34100258	    -76.89073248	     34.73366486	      0.07872796	     66.41018234	      2.45728619	      0.80000000	      0.00000000	      0.00000000	      0.00000000	    -31.10246192	     30.50716048	      8.69741562	     -0.03126184	     -0.17823454	      0.09908991	     97.49583015	     -3.93456165	     28.27104905	    -79.47507131	    -21.81636273	      2.01126314	    -19.01180147	      0.90734059	      0.80000000	      0.00000000	      0.00000000	      0.00000000	     25.96567563	     16.16132730	     -6.76570953	      0.01037427	     -0.06239305	      0.02614974	    -81.27404669	     -9.08628961	     -4.30610581	    114.22101108	      5.49833292	     -4.09905151	    -70.71135397	      4.99872754	      2.30000000	      0.00000000	      0.00000000	      0.00000000	    -87.49419170	     -0.88917804	      0.57964858	     96.20080099	     -4.69952417	      3.44728024	    -63.37352390	     -0.74800912	      2.30000000	      0.00000000	      0.00000000	      0.00000000
      6.32133333	   -101.91003497	      5.20129194	      0.26009267	     -1.04636541	      0.26151094	     -3.32434203	    -18.55415223	     11.95175161	     -7.08199231	     -0.16924290	      4.27036050	    -25.62607017	     24.28408066	    -13.88924208	    -15.45967395	     -3.25818835	     -9.13560454	      3.03129000	    -36.23736459	    -37.29280705	     -8.17898847	      0.03207744	     -0.17892463	      0.10555210	    105.38452247	     -3.49839846	    -13.49802826	    -84.82980146	     36.57729356	      2.80615218	     74.79683320	      5.57604225	      0.80000000	      0.00000000	      0.00000000	      0.00000000	    -29.73757465	     30.72794229	      9.58925298	     -0.03027832	     -0.17921807	      0.09936632	     98.92456940	     -3.03500063	     28.16557053	    -80.43610966	    -21.79775427	      1.97978923	    -19.60315031	      1.03744140	      0.80000000	      0.00000000	      0.00000000	      0.00000000	     25.51478312	     16.17134813	     -7.69713535	      0.00962400	     -0.06275757	      0.02739152	    -85.58657161	     -8.69342255	     -4.82493247	    115.52083895	      5.02821092	     -3.77780733	    -74.16296086	      4.76254918	      2.30000000	      0.00000000	      0.00000000	      0.00000000	    -85.36418511	     -1.32895894	      0.43222532	     96.70433760	     -4.81136266	      3.78360530	    -63.62990629	     -1.12779666	      2.30000000	      0.00000000	      0.00000000	      0.00000000
      6.33800000	   -101.76593330	      5.78858435	      0.91468887	     -1.04766497	      0.26163473	     -3.30993964	    -18.03710171	     13.14265143	     -6.46494014	     -1.69287490	      4.96716099	    -27.13478077	     23.97636974	    -13.88368641	    -15.52818582	     -3.55667984	     -9.19940661	      2.18424489	    -36.55670401	    -35.80814037	     -8.28238340	      0.03416995	     -0.17895331	      0.10792268	    102.07261355	     -3.38946639	    -12.52083893	    -95.80417005	     35.75389219	      6.21832905	     79.20202699	      9.20069901	      0.80000000	      0.00000000	      0.00000000	      0.00000000	    -28.32273275	     30.25446967	      9.42913427	     -0.03009157	     -0.17938081	      0.10037380	    100.72889640	     -3.25462208	     27.73252033	    -80.71601433	    -21.39288476	      1.95778657	    -19.76573083	      1.11724928	      0.80000000	      0.00000000	      0.00000000	      0.00000000	     25.06896676	     15.76501812	     -8.52719365	      0.00875382	     -0.06278276	      0.02767356	    -89.22352831	     -9.12987567	     -5.10405747	    114.82308373	      4.66165943	     -3.97858373	    -76.04959583	      5.01334881	      2.30000000	      0.00000000	      0.00000000	      0.00000000	    -83.13254843	     -1.77200744	      0.19684193	     97.58949335	     -4.99964353	      4.10246153	    -63.46785319	     -1.48395418	      2.30000000	      0.00000000	      0.00000000	      0.00000000
